<?xml version="1.0" encoding="UTF-8" ?>
<svg width="512pt" height="512pt" viewBox="0 0 512 512" version="1.1" xmlns="http://www.w3.org/2000/svg">
<g id="#ffffffff">
</g>
<g id="#000000ff">
<path fill="#000000" opacity="1.00" d=" M 254.61 0.00 L 257.44 0.00 C 297.31 0.49 336.94 15.66 366.36 42.68 C 399.00 71.75 419.20 114.41 420.66 158.12 C 422.05 178.60 417.41 198.90 411.61 218.40 C 402.00 248.18 387.82 276.26 372.01 303.20 C 348.28 343.03 320.88 380.59 291.26 416.23 C 280.05 430.38 267.85 443.69 256.00 457.30 C 247.70 447.85 239.39 438.40 231.12 428.92 C 223.14 419.20 215.21 409.44 207.25 399.70 C 177.85 362.61 150.59 323.66 128.03 282.01 C 110.96 249.68 96.07 215.36 91.78 178.74 C 89.47 153.60 93.36 127.94 102.65 104.49 C 117.91 65.57 148.60 32.93 186.63 15.51 C 207.80 5.40 231.21 0.51 254.61 0.00 M 183.37 51.38 C 161.57 65.34 143.87 85.66 133.19 109.25 C 124.37 128.50 120.30 149.88 121.21 171.04 C 121.59 179.85 123.67 188.44 125.35 197.06 C 135.32 235.29 154.56 270.27 175.30 303.61 C 199.54 341.69 226.95 377.67 256.00 412.18 C 267.05 399.10 277.76 385.74 288.28 372.23 C 318.06 333.28 346.16 292.68 367.53 248.41 C 376.71 228.59 385.02 208.10 388.74 186.47 C 391.81 172.20 391.42 157.35 389.05 143.01 C 382.51 101.03 354.45 63.27 316.43 44.45 C 294.80 33.46 270.11 28.64 245.93 30.49 C 223.78 32.09 202.05 39.35 183.37 51.38 Z" />
<path fill="#000000" opacity="1.00" d=" M 244.50 75.81 C 265.06 73.12 286.54 77.82 304.02 89.01 C 321.28 99.83 334.60 116.74 341.12 136.04 C 347.88 155.66 347.50 177.65 340.01 197.02 C 332.11 218.01 315.97 235.72 295.84 245.60 C 278.98 254.00 259.42 256.87 240.86 253.63 C 217.97 249.83 196.81 236.66 183.28 217.82 C 170.91 201.01 164.81 179.75 166.29 158.95 C 167.73 135.80 178.69 113.45 196.01 98.05 C 209.43 85.96 226.57 78.08 244.50 75.81 M 246.55 105.80 C 225.43 108.94 206.82 124.39 199.66 144.48 C 194.05 159.74 195.01 177.30 202.38 191.80 C 209.13 205.39 221.24 216.18 235.50 221.35 C 248.60 226.15 263.40 226.15 276.51 221.34 C 290.76 216.18 302.85 205.40 309.60 191.83 C 316.12 179.01 317.66 163.79 314.02 149.88 C 310.08 134.48 299.66 120.90 285.86 113.02 C 274.10 106.18 259.97 103.64 246.55 105.80 Z" />
<path fill="#000000" opacity="1.00" d=" M 151.00 482.00 C 221.00 482.00 291.00 482.00 361.00 482.00 C 361.00 492.00 361.00 502.00 361.00 512.00 L 151.00 512.00 C 151.00 502.00 151.00 492.00 151.00 482.00 Z" />
</g>
</svg>
