<?xml version="1.0" encoding="UTF-8" ?>
<svg width="512pt" height="512pt" viewBox="0 0 512 512" version="1.1" xmlns="http://www.w3.org/2000/svg">
<g id="#ffffffff">
</g>
<g id="#000000ff">
<path fill="#000000" opacity="1.00" d=" M 144.06 47.00 C 144.31 38.81 151.85 31.79 160.02 32.00 C 168.51 31.79 176.13 39.44 175.98 47.91 C 176.04 58.60 175.97 69.30 176.00 80.00 C 229.34 80.00 282.67 80.00 336.00 80.00 C 336.06 69.00 335.90 58.00 336.06 47.00 C 336.31 38.81 343.85 31.79 352.02 32.00 C 360.51 31.79 368.12 39.44 367.98 47.90 C 368.04 58.60 367.97 69.30 368.01 80.00 C 386.67 80.01 405.33 80.00 424.00 80.00 C 432.38 79.87 441.02 79.87 448.91 83.10 C 467.26 89.73 480.20 108.48 479.98 127.98 C 480.03 228.66 479.98 329.33 480.00 430.00 C 480.12 436.89 479.02 443.83 476.38 450.21 C 469.37 467.87 451.06 480.21 432.04 479.98 C 315.36 480.03 198.68 479.98 82.00 480.00 C 75.11 480.12 68.17 479.02 61.79 476.38 C 44.15 469.33 31.79 451.08 32.02 432.05 C 31.97 331.03 32.01 230.00 32.00 128.98 C 31.77 116.31 36.69 103.62 45.60 94.59 C 54.47 85.36 67.17 80.01 79.97 80.02 C 101.31 79.97 122.65 80.02 144.00 80.00 C 144.06 69.00 143.90 58.00 144.06 47.00 M 64.02 127.94 C 63.98 149.29 64.01 170.64 64.00 192.00 C 163.34 192.00 262.67 192.00 362.00 191.99 C 365.72 192.07 369.58 191.63 373.17 192.85 C 380.14 195.18 384.98 202.74 383.85 210.06 C 383.00 217.75 375.84 224.10 368.09 223.98 C 266.73 224.03 165.37 223.98 64.00 224.00 C 64.00 293.36 63.98 362.72 64.02 432.08 C 63.81 440.56 71.48 448.12 79.92 447.98 C 197.31 448.01 314.70 448.01 432.09 447.98 C 440.55 448.14 448.15 440.55 447.98 432.09 C 448.02 362.73 447.99 293.37 448.00 224.01 C 437.30 223.97 426.60 224.04 415.91 223.98 C 405.14 224.30 396.70 212.03 401.11 202.11 C 403.42 196.16 409.53 191.92 415.94 192.01 C 426.63 191.96 437.31 192.03 447.99 192.00 C 447.99 170.63 448.02 149.27 447.98 127.91 C 448.13 119.47 440.55 111.82 432.08 112.02 C 410.72 111.98 389.36 112.01 368.00 112.01 C 367.97 122.70 368.04 133.40 367.98 144.09 C 368.13 152.22 361.14 159.58 353.05 159.96 C 344.61 160.71 336.39 153.60 336.07 145.11 C 335.89 134.07 336.06 123.04 336.00 112.00 C 282.67 112.00 229.33 112.00 176.00 112.00 C 175.97 122.70 176.04 133.40 175.98 144.09 C 176.13 152.22 169.14 159.59 161.04 159.96 C 152.61 160.71 144.39 153.59 144.07 145.10 C 143.90 134.07 144.06 123.04 144.00 112.00 C 122.64 112.01 101.29 111.98 79.94 112.01 C 71.44 111.80 63.79 119.43 64.02 127.94 Z" />
</g>
</svg>
