<?xml version="1.0" encoding="UTF-8" ?>
<svg width="512pt" height="512pt" viewBox="0 0 512 512" version="1.1" xmlns="http://www.w3.org/2000/svg">
<g id="#ffffffff">
</g>
<g id="#000000ff">
<path fill="#000000" opacity="1.00" d=" M 251.59 32.67 C 257.08 30.97 263.23 32.74 267.32 36.68 C 341.82 105.85 416.33 175.02 490.81 244.21 C 496.40 249.21 497.60 258.26 493.51 264.55 C 489.89 270.44 482.19 273.19 475.61 271.26 C 470.79 270.09 467.53 266.14 464.00 262.97 C 458.67 258.11 453.53 253.03 448.05 248.33 C 447.93 305.22 448.04 362.11 448.00 419.00 C 447.92 428.74 448.75 438.81 445.18 448.10 C 438.79 466.83 419.83 480.24 400.03 479.98 C 304.69 480.03 209.34 479.98 114.00 480.00 C 107.12 480.12 100.18 479.02 93.80 476.38 C 76.49 469.46 64.19 451.75 64.05 433.06 C 63.90 371.49 64.11 309.91 63.94 248.34 C 56.55 254.80 49.56 261.71 42.25 268.27 C 38.71 271.40 33.75 272.81 29.09 271.97 C 22.83 271.01 17.46 265.95 16.17 259.74 C 14.88 254.38 16.69 248.48 20.68 244.70 C 93.97 176.65 167.25 108.60 240.54 40.55 C 243.85 37.48 247.06 33.87 251.59 32.67 M 96.08 218.25 C 95.88 288.50 96.08 358.75 95.98 429.00 C 96.00 431.28 95.92 433.59 96.47 435.83 C 98.09 442.74 104.81 448.06 111.92 447.98 C 133.28 448.03 154.64 447.99 176.00 448.00 C 176.03 410.32 175.94 372.65 176.04 334.97 C 176.18 316.03 188.80 298.08 206.47 291.34 C 213.60 288.45 221.37 287.76 229.00 287.99 C 248.68 288.02 268.35 287.97 288.03 288.02 C 300.60 287.98 313.08 293.15 321.92 302.08 C 330.86 310.92 335.97 323.40 335.98 335.96 C 336.03 373.31 335.98 410.65 336.00 448.00 C 357.36 447.98 378.72 448.03 400.09 447.98 C 408.55 448.15 416.16 440.55 415.98 432.08 C 415.98 360.80 416.09 289.52 415.92 218.24 C 362.55 168.86 309.37 119.26 256.00 69.86 C 202.65 119.28 149.48 168.89 96.08 218.25 M 208.02 335.93 C 207.98 373.28 208.01 410.64 208.00 448.00 C 240.00 448.00 272.00 448.00 304.00 448.00 C 303.99 410.64 304.03 373.28 303.98 335.92 C 304.13 327.47 296.55 319.82 288.08 320.02 C 266.70 319.99 245.32 319.99 223.94 320.02 C 215.44 319.80 207.80 327.43 208.02 335.93 Z" />
</g>
</svg>
