<?xml version="1.0" encoding="UTF-8" ?>
<svg width="512pt" height="512pt" viewBox="0 0 512 512" version="1.1" xmlns="http://www.w3.org/2000/svg">
<g id="#ffffffff">
</g>
<g id="#000000ff">
<path fill="#000000" opacity="1.00" d=" M 41.19 48.12 C 106.27 23.71 175.48 10.21 244.98 8.65 C 319.27 7.33 393.66 20.26 463.53 45.40 C 473.55 49.32 484.32 52.21 492.81 59.15 C 504.27 68.12 511.24 82.23 512.00 96.72 L 512.00 248.41 C 511.69 259.89 498.30 268.19 487.96 263.00 C 455.25 246.76 422.63 230.31 389.93 214.03 C 386.08 212.10 381.84 210.40 379.17 206.84 C 376.45 203.56 375.36 199.23 375.46 195.02 C 375.48 177.01 375.46 158.99 375.47 140.97 C 339.97 132.54 303.47 128.87 267.03 128.11 C 223.25 127.43 179.20 130.93 136.53 141.04 C 136.53 159.35 136.55 177.67 136.52 195.99 C 136.66 202.58 132.67 208.92 126.72 211.72 C 93.00 228.65 59.23 245.47 25.50 262.35 C 20.76 264.88 14.88 265.28 9.98 262.96 C 4.26 260.42 0.35 254.56 0.00 248.33 L 0.00 96.18 C 0.96 81.40 8.37 67.07 20.36 58.26 C 26.52 53.46 33.97 50.88 41.19 48.12 M 206.08 44.99 C 151.00 50.11 96.59 62.89 45.13 83.22 C 38.68 85.54 34.12 92.08 34.16 98.94 C 34.11 139.24 34.13 179.55 34.15 219.85 C 56.87 208.54 79.52 197.07 102.30 185.87 C 102.58 166.29 102.26 146.71 102.46 127.13 C 102.67 119.96 107.99 113.51 114.83 111.57 C 127.96 107.61 141.39 104.71 154.88 102.28 C 194.17 95.38 234.19 93.11 274.03 94.13 C 315.03 95.46 356.24 99.85 395.79 111.13 C 403.21 112.74 409.31 119.38 409.54 127.09 C 409.70 146.65 409.52 166.20 409.63 185.76 C 432.41 197.04 455.12 208.48 477.86 219.85 C 477.86 179.55 477.90 139.25 477.84 98.96 C 477.89 91.78 472.92 85.12 466.15 82.87 C 383.86 50.76 294.16 36.88 206.08 44.99 Z" />
<path fill="#000000" opacity="1.00" d=" M 187.76 178.98 C 187.62 170.26 195.20 162.41 203.89 162.16 C 212.83 161.44 221.39 168.94 221.77 177.90 C 222.01 189.71 221.78 201.53 221.88 213.34 C 244.63 213.33 267.37 213.33 290.12 213.34 C 290.15 202.23 290.13 191.12 290.12 180.01 C 289.34 169.54 299.70 160.25 310.03 162.37 C 317.96 163.56 324.35 170.97 324.24 179.01 C 324.31 192.77 324.23 206.54 324.27 220.30 C 368.20 244.14 412.02 268.18 455.93 292.06 C 463.98 296.55 472.36 300.59 479.56 306.41 C 499.47 321.91 511.60 346.64 512.00 371.84 L 512.00 453.34 C 511.72 473.11 498.92 491.96 480.61 499.44 C 473.80 502.35 466.36 503.55 458.98 503.47 C 323.33 503.46 187.68 503.48 52.04 503.46 C 38.98 503.63 25.91 498.67 16.39 489.70 C 6.26 480.43 0.28 466.93 0.00 453.22 L 0.00 371.55 C 0.42 342.27 17.11 313.95 42.59 299.51 C 90.92 273.04 139.34 246.71 187.71 220.31 C 187.79 206.53 187.67 192.75 187.76 178.98 M 209.31 247.53 C 196.92 253.97 184.74 260.86 172.45 267.51 C 134.95 288.00 97.39 308.39 59.91 328.93 C 44.27 337.63 34.08 355.11 34.15 373.00 C 34.14 399.68 34.08 426.36 34.18 453.04 C 34.33 461.80 42.26 469.43 51.02 469.31 C 187.67 469.35 324.33 469.35 460.99 469.32 C 470.09 469.45 478.15 461.20 477.85 452.11 C 477.87 425.74 477.88 399.38 477.85 373.02 C 477.83 358.51 471.26 344.18 460.27 334.71 C 455.17 330.15 448.95 327.22 443.03 323.91 C 396.21 298.51 349.59 272.69 302.66 247.52 C 271.55 247.44 240.42 247.41 209.31 247.53 Z" />
<path fill="#000000" opacity="1.00" d=" M 248.14 299.12 C 260.89 297.67 274.07 299.79 285.61 305.44 C 301.27 312.92 313.79 326.65 319.88 342.89 C 324.96 356.25 325.61 371.24 321.82 385.02 C 317.83 399.61 308.80 412.76 296.63 421.74 C 282.30 432.51 263.60 437.16 245.89 434.44 C 220.52 430.89 198.24 411.76 190.82 387.25 C 185.02 368.87 187.49 348.06 197.60 331.62 C 208.29 313.81 227.45 301.37 248.14 299.12 M 248.46 333.66 C 239.16 335.72 230.90 341.92 226.26 350.24 C 220.77 359.79 220.44 372.06 225.36 381.91 C 228.80 389.01 234.82 394.78 242.00 398.02 C 250.76 402.05 261.25 402.03 270.01 398.02 C 277.21 394.76 283.23 388.95 286.66 381.83 C 291.43 372.24 291.22 360.36 286.12 350.95 C 279.28 337.61 263.05 330.09 248.46 333.66 Z" />
</g>
</svg>
